# xmcd
#
# Track frame offsets: 
#        150
#        16088
#        28444
#        39765
#        58714
#        73915
#        89020
#        110163
#        128284
#        143452
#        161248
#        170652
#        188068
#        206857
#        221775
#        245210
#        258282
#        277536
#        294091
#        311024
#        331334
#
# Disc length: 4730 seconds
#
# Revision: 3
# Processed by: cddbd v1.5.2PL0 Copyright (c) Steve Scherf et al.
# Submitted via: ExactAudioCopy v1.0b3
#
DISCID=3a127815
DTITLE=Die Toten Hosen - Alles ohne Strom
DYEAR=2019
DGENRE=Rock
TTITLE0=Entschuldigung, es tut uns leid!
TTITLE1=Strom
TTITLE2=Urknall
TTITLE3=Laune der Natur
TTITLE4=Das ist der Moment
TTITLE5=Kamikaze
TTITLE6=Ein guter Tag zum Fliegen
TTITLE7=Ohne Dich
TTITLE8=Schwere (-los)
TTITLE9=Altes Fieber
TTITLE10=Politische Lieder
TTITLE11=1000 gute Gruende
TTITLE12=Everlong
TTITLE13=Alles mit nach Hause
TTITLE14=Paradies
TTITLE15=Sorgenbrecher (Auf Euch)
TTITLE16=Achterbahn
TTITLE17=Liebeslied
TTITLE18=Feiern im Regen
TTITLE19=Hier kommt Alex
TTITLE20=Tage wie diese
EXTD=YEAR: 0
EXTT0=
EXTT1=
EXTT2=
EXTT3=
EXTT4=
EXTT5=
EXTT6=
EXTT7=
EXTT8=
EXTT9=
EXTT10=
EXTT11=
EXTT12=
EXTT13=
EXTT14=
EXTT15=
EXTT16=
EXTT17=
EXTT18=
EXTT19=
EXTT20=
PLAYORDER=
